<svg width="23" height="22" viewBox="0 0 23 22" fill="none" xmlns="http://www.w3.org/2000/svg">
<path id="Vector" d="M4.03333 19.818L5.81133 18.3771L5.823 18.3676C6.194 18.0662 6.38183 17.9149 6.59067 17.8073C6.77733 17.7104 6.97683 17.6395 7.18333 17.5969C7.4155 17.5485 7.657 17.5485 8.14233 17.5485H18.2702C19.5745 17.5485 20.2278 17.5485 20.726 17.2908C21.165 17.0641 21.522 16.7025 21.7457 16.2577C22 15.7518 22 15.0898 22 13.7707V4.77896C22 3.45745 22 2.79551 21.7457 2.29078C21.5216 1.84584 21.1642 1.4842 20.7248 1.25768C20.2267 1 19.5733 1 18.2667 1H4.73333C3.42667 1 2.77333 1 2.274 1.25768C1.83493 1.48426 1.47797 1.84592 1.25433 2.29078C1 2.79669 1 3.45863 1 4.78251V18.3416C1 19.6017 1 20.2317 1.25433 20.5544C1.3637 20.6935 1.50264 20.8058 1.66081 20.883C1.81897 20.9601 1.99229 21.0001 2.16783 21C2.57617 21 3.0615 20.6052 4.03333 19.818Z" stroke="#F8F8F8" stroke-width="2" stroke-linecap="round" stroke-linejoin="round"/>
</svg>
