<svg width="34" height="31" viewBox="0 0 34 31" fill="none" xmlns="http://www.w3.org/2000/svg">
<g id="Group 38">
<path id="Vector" d="M19.1013 12.311C18.2343 12.311 17.5626 12.9828 17.5626 13.8122C17.5626 14.6415 18.2343 15.3133 19.1013 15.3133C19.8931 15.3133 20.5649 14.6415 20.5649 13.8122C20.5649 12.9828 19.8931 12.311 19.1013 12.311ZM8.59335 12.311C7.72644 12.311 7.05469 12.9828 7.05469 13.8122C7.05469 14.6415 7.72644 15.3133 8.59335 15.3133C9.38519 15.3133 10.0569 14.6415 10.0569 13.8122C10.0569 12.9828 9.38519 12.311 8.59335 12.311Z" fill="#F8F8F8"/>
<path id="Vector_2" d="M31.1479 9.45879C29.3428 6.98193 26.8209 5.32694 24.0551 4.58012V4.58388C23.4134 3.87084 22.6891 3.2141 21.8785 2.62866C15.7351 -1.8372 7.1111 -0.47493 2.62648 5.66844C-0.987493 10.6597 -0.833627 17.3735 2.85164 22.1433L2.88167 27.1196C2.88167 27.2397 2.90043 27.3598 2.93796 27.4723C3.13686 28.1066 3.81237 28.4556 4.44284 28.2567L9.19392 26.7593C10.4511 27.2059 11.7496 27.4611 13.0406 27.5324L13.0218 27.5474C16.3656 29.983 20.7489 30.7148 24.7681 29.3863L29.538 30.94C29.6581 30.9775 29.7819 31 29.9095 31C30.5737 31 31.1104 30.4633 31.1104 29.7991V24.7703C34.4166 20.2819 34.503 14.0785 31.1479 9.45879ZM9.71931 24.0948L9.26897 23.9072L5.55368 25.0705L5.51615 21.1676L5.21592 20.8298C2.04103 16.9569 1.83088 11.3765 4.80311 7.28216C8.42083 2.32092 15.3561 1.2251 20.3023 4.80529C25.2635 8.41176 26.3631 15.3357 22.7791 20.2669C19.7731 24.3913 14.3916 25.9149 9.71931 24.0948ZM28.6711 23.4568L28.3708 23.8321L28.4084 27.735L24.7306 26.4966L24.2803 26.6843C22.1787 27.4648 19.9382 27.5286 17.8629 26.947L17.8554 26.9432C20.6288 26.0913 23.1432 24.365 24.9558 21.8806C27.8229 17.9289 28.2883 12.9639 26.622 8.73075L26.6445 8.74576C27.5077 9.36497 28.2995 10.1381 28.9713 11.0725C31.6958 14.8103 31.542 19.8991 28.6711 23.4568Z" fill="#F8F8F8"/>
<path id="Vector_3" d="M13.8473 12.311C12.9803 12.311 12.3086 12.9828 12.3086 13.8122C12.3086 14.6415 12.9803 15.3133 13.8473 15.3133C14.6391 15.3133 15.3109 14.6415 15.3109 13.8122C15.3109 12.9828 14.6391 12.311 13.8473 12.311Z" fill="#F8F8F8"/>
</g>
</svg>
