<svg width="28" height="20" viewBox="0 0 28 20" fill="none" xmlns="http://www.w3.org/2000/svg">
<g id="logos:google-gmail" clip-path="url(#clip0_1_390)">
<path id="Vector" d="M6.36366 19.9016V9.65181L3.00858 6.74373L0 5.12994V18.0927C0 19.0936 0.855859 19.9016 1.90914 19.9016H6.36366Z" fill="#4285F4"/>
<path id="Vector_2" d="M21.6364 19.9016H26.0909C27.1473 19.9016 28 19.0906 28 18.0927V5.13005L24.5923 6.97844L21.6364 9.65181V19.9016Z" fill="#34A853"/>
<path id="Vector_3" d="M6.36364 9.65182L5.9071 5.64695L6.36364 1.81389L14 7.24021L21.6363 1.81389L22.147 5.44L21.6363 9.65182L14 15.0781L6.36364 9.65182Z" fill="#EA4335"/>
<path id="Vector_4" d="M21.6364 1.81388V9.65181L28 5.12995V2.71824C28 0.481449 25.305 -0.79368 23.4183 0.54777L21.6364 1.81388Z" fill="#FBBC04"/>
<path id="Vector_5" d="M0 5.12996L2.92677 7.20976L6.36366 9.65183V1.8139L4.58172 0.547787C2.69172 -0.793767 0 0.481466 0 2.71815V5.12986V5.12996Z" fill="#C5221F"/>
</g>
<defs>
<clipPath id="clip0_1_390">
<rect width="28" height="20" fill="white"/>
</clipPath>
</defs>
</svg>
