<svg width="30" height="30" viewBox="0 0 30 30" fill="none" xmlns="http://www.w3.org/2000/svg">
<g id="Group 24">
<path id="Vector" d="M1 29.1789C1.01376 27.8208 1.37182 26.4884 2.04067 25.3064C2.74433 24.0765 3.75843 23.0529 4.98164 22.3377C6.20485 21.6225 7.59432 21.2409 9.01122 21.2309C11.8693 21.2375 14.5746 22.817 15.9818 25.3064C16.6503 26.4878 17.0083 27.8194 17.0224 29.1767M21.4295 2.789V1M27.5361 4.98597L29 3.95839M15.3185 4.98597L13.8524 3.95839M9.00904 17.4304C9.54971 17.443 10.0874 17.3473 10.5906 17.1491C11.0938 16.9508 11.5523 16.654 11.9391 16.276C12.3259 15.8981 12.6333 15.4466 12.8431 14.9482C13.053 14.4497 13.1611 13.9144 13.1611 13.3735C13.1611 12.8327 13.053 12.2974 12.8431 11.7989C12.6333 11.3005 12.3259 10.849 11.9391 10.471C11.5523 10.0931 11.0938 9.79627 10.5906 9.59802C10.0874 9.39978 9.54971 9.30412 9.00904 9.31666C7.94938 9.34123 6.94139 9.77944 6.20063 10.5376C5.45988 11.2957 5.04515 12.3136 5.04515 13.3735C5.04515 14.4335 5.45988 15.4514 6.20063 16.2095C6.94139 16.9676 7.94938 17.4058 9.00904 17.4304ZM25.8649 10.8068C25.8612 10.2163 25.7409 9.63243 25.5109 9.08861C25.2809 8.54479 24.9458 8.05175 24.5248 7.6378C24.1037 7.22385 23.6051 6.89715 23.0574 6.67644C22.5098 6.45574 21.9239 6.34539 21.3335 6.35172C20.7433 6.37003 20.1625 6.50473 19.6246 6.74811C19.0866 6.99148 18.602 7.33873 18.1985 7.76992C17.7951 8.2011 17.4809 8.70772 17.2738 9.2607C17.0667 9.81367 16.9709 10.4021 16.9919 10.9922C17.0347 11.7814 17.2842 12.5456 17.7153 13.208C18.1465 13.8704 18.7442 14.4079 19.4485 14.7666V16.9483C19.4525 17.0766 19.5061 17.1983 19.5981 17.2879C19.69 17.3774 19.8132 17.4277 19.9416 17.4282H22.9109C23.0396 17.4283 23.1633 17.3782 23.2558 17.2886C23.3482 17.199 23.4021 17.0769 23.4061 16.9483V14.7273C24.1319 14.3566 24.7438 13.7965 25.1771 13.1063C25.6103 12.4161 25.8466 11.6215 25.8649 10.8068Z" stroke="#1D67DD" stroke-linecap="round" stroke-linejoin="round"/>
</g>
</svg>
