<svg width="195" height="35" viewBox="0 0 195 35" fill="none" xmlns="http://www.w3.org/2000/svg">
<g id="Group 7">
<g id="Group 4">
<path id="Vector" d="M173.012 0H182.981C185.14 0 187.143 0.535714 188.991 1.60714C190.838 2.67857 192.298 4.13819 193.37 5.98602C194.457 7.83384 195 9.85247 195 12.0419C195 14.2314 194.457 16.25 193.37 18.0978C192.298 19.9456 190.838 21.4053 188.991 22.4767C187.143 23.5326 185.14 24.0605 182.981 24.0605H177.065V30.3493C177.065 31.4363 176.669 32.3757 175.877 33.1677C175.085 33.9596 174.13 34.3556 173.012 34.3556C171.925 34.3556 170.986 33.9596 170.194 33.1677C169.402 32.3602 169.006 31.4208 169.006 30.3493V4.00621C169.006 2.93478 169.402 2.0031 170.194 1.21118C170.986 0.403726 171.925 0 173.012 0ZM183.028 8.08229H177.065V16.0015H183.028C184.115 16.0015 185.039 15.6211 185.8 14.8602C186.561 14.0838 186.941 13.1444 186.941 12.0419C186.941 10.9394 186.561 10.0078 185.8 9.24688C185.039 8.47049 184.115 8.08229 183.028 8.08229Z" fill="white"/>
<path id="Vector_2" d="M161.297 0C162.399 0 163.346 0.403726 164.138 1.21118C164.946 2.0031 165.349 2.93478 165.349 4.00621V20.5667C165.349 22.4456 164.984 24.2391 164.255 25.9472C163.525 27.6397 162.547 29.1071 161.32 30.3493C160.093 31.5761 158.626 32.5543 156.918 33.2841C155.225 33.9984 153.447 34.3556 151.584 34.3556C149.099 34.3556 146.793 33.7422 144.666 32.5155C142.554 31.2888 140.877 29.6195 139.635 27.5077C138.408 25.3804 137.795 23.0667 137.795 20.5667V4.00621C137.795 2.93478 138.191 2.0031 138.983 1.21118C139.79 0.403726 140.73 0 141.801 0C142.919 0 143.874 0.403726 144.666 1.21118C145.458 2.0031 145.854 2.93478 145.854 4.00621V20.5667C145.854 22.1351 146.413 23.486 147.531 24.6195C148.665 25.7376 150.016 26.2966 151.584 26.2966C153.152 26.2966 154.495 25.7376 155.613 24.6195C156.731 23.486 157.29 22.1351 157.29 20.5667V4.00621C157.29 2.93478 157.686 2.0031 158.478 1.21118C159.286 0.403726 160.225 0 161.297 0Z" fill="white"/>
<path id="Vector_3" d="M117.647 0C118.719 0 119.65 0.403726 120.442 1.21118C121.25 2.0031 121.653 2.93478 121.653 4.00621C121.653 8.89751 119.604 12.927 115.504 16.0947C117.104 17.0574 118.486 18.1987 119.65 19.5186C120.815 20.823 121.747 22.4068 122.445 24.2702C123.16 26.1335 123.517 28.1599 123.517 30.3493C123.517 31.4208 123.113 32.3602 122.306 33.1677C121.498 33.9596 120.551 34.3556 119.464 34.3556C118.362 34.3556 117.414 33.9596 116.622 33.1677C115.846 32.3757 115.458 31.4363 115.458 30.3493C115.458 27.6009 114.503 25.2639 112.593 23.3385C110.683 21.3975 108.377 20.427 105.675 20.427H104.813V30.3493C104.813 31.4363 104.417 32.3757 103.626 33.1677C102.834 33.9596 101.879 34.3556 100.761 34.3556C99.6736 34.3556 98.7342 33.9596 97.9423 33.1677C97.1504 32.3602 96.7544 31.4208 96.7544 30.3493V4.00621C96.7544 2.93478 97.1504 2.0031 97.9423 1.21118C98.7342 0.403726 99.6736 0 100.761 0C101.879 0 102.834 0.403726 103.626 1.21118C104.417 2.0031 104.813 2.93478 104.813 4.00621V12.5543H105.139C107.484 12.5543 109.48 11.7236 111.125 10.0621C112.771 8.38508 113.594 6.36645 113.594 4.00621C113.594 2.91925 113.983 1.97981 114.759 1.18789C115.551 0.395962 116.514 0 117.647 0Z" fill="white"/>
<path id="Vector_4" d="M69.8059 1.37422C71.9333 0.458074 74.1615 0 76.4907 0C78.8199 0 81.0482 0.458074 83.1755 1.37422C85.3028 2.27484 87.1274 3.49378 88.6491 5.03105C90.1864 6.55279 91.4053 8.37732 92.3059 10.5046C93.2221 12.632 93.6801 14.8602 93.6801 17.1894C93.6801 19.5186 93.2221 21.7391 92.3059 23.8509C91.4053 25.9627 90.1864 27.7872 88.6491 29.3245C87.1274 30.8618 85.3028 32.0885 83.1755 33.0046C81.0482 33.9052 78.8199 34.3556 76.4907 34.3556C73.3696 34.3556 70.4892 33.5869 67.8494 32.0497C65.2252 30.5124 63.1445 28.4316 61.6072 25.8074C60.0855 23.1677 59.3246 20.295 59.3246 17.1894C59.3246 14.8602 59.7749 12.632 60.6755 10.5046C61.5761 8.37732 62.7951 6.55279 64.3323 5.03105C65.8696 3.49378 67.6941 2.27484 69.8059 1.37422ZM70.0622 10.7609C68.2764 12.5466 67.3836 14.6894 67.3836 17.1894C67.3836 19.6894 68.2764 21.8323 70.0622 23.618C71.8479 25.4037 73.9907 26.2966 76.4907 26.2966C78.9907 26.2966 81.1336 25.4037 82.9193 23.618C84.7205 21.8323 85.6211 19.6894 85.6211 17.1894C85.6211 14.6894 84.7205 12.5466 82.9193 10.7609C81.1336 8.97515 78.9907 8.08229 76.4907 8.08229C73.9907 8.08229 71.8479 8.97515 70.0622 10.7609Z" fill="white"/>
<path id="Vector_5" d="M33.0976 1.37422C35.2249 0.458074 37.4532 0 39.7823 0C42.1115 0 44.3398 0.458074 46.4671 1.37422C48.5944 2.27484 50.419 3.49378 51.9407 5.03105C53.478 6.55279 54.6969 8.37732 55.5975 10.5046C56.5137 12.632 56.9718 14.8602 56.9718 17.1894C56.9718 19.5186 56.5137 21.7391 55.5975 23.8509C54.6969 25.9627 53.478 27.7872 51.9407 29.3245C50.419 30.8618 48.5944 32.0885 46.4671 33.0046C44.3398 33.9052 42.1115 34.3556 39.7823 34.3556C36.6612 34.3556 33.7808 33.5869 31.141 32.0497C28.5168 30.5124 26.4361 28.4316 24.8988 25.8074C23.3771 23.1677 22.6162 20.295 22.6162 17.1894C22.6162 14.8602 23.0665 12.632 23.9671 10.5046C24.8678 8.37732 26.0867 6.55279 27.624 5.03105C29.1612 3.49378 30.9858 2.27484 33.0976 1.37422ZM33.3538 10.7609C31.5681 12.5466 30.6752 14.6894 30.6752 17.1894C30.6752 19.6894 31.5681 21.8323 33.3538 23.618C35.1395 25.4037 37.2823 26.2966 39.7823 26.2966C42.2823 26.2966 44.4252 25.4037 46.2109 23.618C48.0121 21.8323 48.9128 19.6894 48.9128 17.1894C48.9128 14.6894 48.0121 12.5466 46.2109 10.7609C44.4252 8.97515 42.2823 8.08229 39.7823 8.08229C37.2823 8.08229 35.1395 8.97515 33.3538 10.7609Z" fill="white"/>
<path id="Vector_6" d="M17.3991 34.3556H4.00621C2.91925 34.3556 1.97981 33.9596 1.18789 33.1677C0.395962 32.3602 0 31.4208 0 30.3493V4.00621C0 2.93478 0.395962 2.0031 1.18789 1.21118C1.97981 0.403726 2.91925 0 4.00621 0C5.12422 0 6.07919 0.403726 6.87111 1.21118C7.66304 2.0031 8.059 2.93478 8.059 4.00621V26.2966H17.3991C18.5015 26.2966 19.441 26.7003 20.2174 27.5077C21.0093 28.2997 21.4053 29.2624 21.4053 30.3959C21.4053 31.4674 21.0093 32.399 20.2174 33.191C19.4254 33.9674 18.486 34.3556 17.3991 34.3556Z" fill="white"/>
<path id="Ellipse 9" d="M44.4119 16.5663C44.4119 19.4863 42.0448 21.8535 39.1248 21.8535C36.2048 21.8535 33.8376 19.4863 33.8376 16.5663C33.8376 13.6463 36.2048 11.2792 39.1248 11.2792C42.0448 11.2792 44.4119 13.6463 44.4119 16.5663Z" fill="white"/>
<path id="Ellipse 13" d="M81.7742 16.5663C81.7742 19.4863 79.4071 21.8535 76.4871 21.8535C73.5671 21.8535 71.2 19.4863 71.2 16.5663C71.2 13.6463 73.5671 11.2792 76.4871 11.2792C79.4071 11.2792 81.7742 13.6463 81.7742 16.5663Z" fill="white"/>
</g>
<g id="Group 5">
<path id="Ellipse 14" d="M42.8332 18.6667C42.8332 20.5076 41.3408 22 39.4998 22C37.6589 22 36.1665 20.5076 36.1665 18.6667C36.1665 16.8257 37.6589 15.3333 39.4998 15.3333C41.3408 15.3333 42.8332 16.8257 42.8332 18.6667Z" fill="#14489B"/>
<path id="Ellipse 15" d="M41.4998 14.6667C41.4998 15.0349 41.2014 15.3333 40.8332 15.3333C40.465 15.3333 40.1665 15.0349 40.1665 14.6667C40.1665 14.2985 40.465 14 40.8332 14C41.2014 14 41.4998 14.2985 41.4998 14.6667Z" fill="#14489B"/>
</g>
<g id="Group 6">
<path id="Ellipse 14_2" d="M79.6667 18.6667C79.6667 20.5076 78.1743 22 76.3333 22C74.4924 22 73 20.5076 73 18.6667C73 16.8257 74.4924 15.3333 76.3333 15.3333C78.1743 15.3333 79.6667 16.8257 79.6667 18.6667Z" fill="#14489B"/>
<path id="Ellipse 15_2" d="M78.3333 14.6667C78.3333 15.0349 78.0349 15.3333 77.6667 15.3333C77.2985 15.3333 77 15.0349 77 14.6667C77 14.2985 77.2985 14 77.6667 14C78.0349 14 78.3333 14.2985 78.3333 14.6667Z" fill="#14489B"/>
</g>
</g>
</svg>
