<svg width="31" height="49" viewBox="0 0 31 49" fill="none" xmlns="http://www.w3.org/2000/svg">
<path id="Vector" d="M24.6813 48.7347H5.68297C4.14108 48.7347 2.80844 48.1731 1.68507 47.0497C0.561689 45.9043 0 44.5716 0 43.0518V5.68297C0 4.1631 0.561689 2.84148 1.68507 1.71811C2.80844 0.572702 4.14108 0 5.68297 0C7.26891 0 8.62357 0.572702 9.74695 1.71811C10.8703 2.84148 11.432 4.1631 11.432 5.68297V37.3027H24.6813C26.2452 37.3027 27.5778 37.8754 28.6792 39.0208C29.8025 40.1442 30.3642 41.5099 30.3642 43.1179C30.3642 44.6377 29.8025 45.9593 28.6792 47.0827C27.5558 48.1841 26.2231 48.7347 24.6813 48.7347Z" fill="#1D67DD"/>
</svg>
